<svg xmlns="http://www.w3.org/2000/svg">
  <symbol id="tiktok" viewBox="0 0 32 32">
    <path d="M24.562,7.613c-1.508-.983-2.597-2.557-2.936-4.391-.073-.396-.114-.804-.114-1.221h-4.814l-.008,19.292c-.081,2.16-1.859,3.894-4.039,3.894-.677,0-1.315-.169-1.877-.465-1.288-.678-2.169-2.028-2.169-3.582,0-2.231,1.815-4.047,4.046-4.047,.417,0,.816,.069,1.194,.187v-4.914c-.391-.053-.788-.087-1.194-.087-4.886,0-8.86,3.975-8.86,8.86,0,2.998,1.498,5.65,3.783,7.254,1.439,1.01,3.19,1.606,5.078,1.606,4.886,0,8.86-3.975,8.86-8.86V11.357c1.888,1.355,4.201,2.154,6.697,2.154v-4.814c-1.345,0-2.597-.4-3.647-1.085Z"></path>
  </symbol>
  <symbol id="mastodon" viewBox="0 0 32 32">
    <path d="M30.116,7.642c-.438-3.223-3.278-5.764-6.645-6.256-.568-.083-2.72-.386-7.705-.386h-.037c-4.987,0-6.056,.303-6.624,.386-3.273,.479-6.262,2.761-6.987,6.023-.349,1.606-.386,3.387-.321,5.02,.092,2.343,.11,4.681,.325,7.014,.149,1.55,.408,3.087,.776,4.601,.689,2.795,3.48,5.121,6.214,6.07,2.927,.99,6.075,1.154,9.091,.474,.332-.076,.66-.165,.984-.266,.732-.23,1.591-.488,2.222-.941,.009-.006,.016-.015,.021-.024,.005-.009,.008-.02,.008-.031v-2.261c0-.01-.003-.02-.007-.029-.004-.009-.011-.017-.019-.023-.008-.006-.017-.01-.027-.013-.01-.002-.02-.002-.03,0-1.932,.457-3.913,.685-5.899,.682-3.419,0-4.339-1.605-4.602-2.273-.212-.577-.346-1.18-.4-1.792,0-.01,.001-.021,.006-.03,.004-.009,.011-.018,.019-.024,.008-.006,.018-.011,.028-.013,.01-.002,.021-.002,.031,0,1.9,.453,3.848,.682,5.803,.682,.47,0,.939,0,1.409-.012,1.966-.055,4.038-.154,5.972-.528,.048-.01,.097-.018,.138-.03,3.051-.579,5.954-2.398,6.249-7.004,.011-.181,.039-1.899,.039-2.088,.001-.64,.208-4.536-.03-6.931Zm-4.696,11.493h-3.208v-7.772c0-1.636-.689-2.471-2.091-2.471-1.541,0-2.313,.987-2.313,2.937v4.254h-3.189v-4.254c0-1.95-.773-2.937-2.315-2.937-1.394,0-2.09,.834-2.091,2.471v7.772h-3.205V11.127c0-1.636,.422-2.936,1.267-3.9,.871-.961,2.014-1.455,3.433-1.455,1.642,0,2.883,.624,3.71,1.872l.798,1.325,.8-1.325c.827-1.248,2.068-1.872,3.707-1.872,1.417,0,2.56,.494,3.434,1.455,.845,.963,1.267,2.263,1.267,3.9l-.003,8.008Z"></path>
  </symbol>
  <symbol id="email" viewBox="0 0 18 18">
    <path d="M8.88,8.827c.074,.042,.166,.042,.24,0l7.777-4.283c-.314-1.173-1.376-2.044-2.647-2.044H3.75c-1.267,0-2.326,.865-2.643,2.033l7.773,4.293Z"></path>
    <path d="M9.845,10.14c-.264,.146-.554,.219-.844,.219s-.582-.073-.846-.22L1,6.188v6.562c0,1.517,1.233,2.75,2.75,2.75H14.25c1.517,0,2.75-1.233,2.75-2.75V6.2l-7.155,3.94Z"></path>
  </symbol>
  <symbol id="linkedin" viewBox="0 0 32 32">
    <path d="M26.111,3H5.889c-1.595,0-2.889,1.293-2.889,2.889V26.111c0,1.595,1.293,2.889,2.889,2.889H26.111c1.595,0,2.889-1.293,2.889-2.889V5.889c0-1.595-1.293-2.889-2.889-2.889ZM10.861,25.389h-3.877V12.87h3.877v12.519Zm-1.957-14.158c-1.267,0-2.293-1.034-2.293-2.31s1.026-2.31,2.293-2.31,2.292,1.034,2.292,2.31-1.026,2.31-2.292,2.31Zm16.485,14.158h-3.858v-6.571c0-1.802-.685-2.809-2.111-2.809-1.551,0-2.362,1.048-2.362,2.809v6.571h-3.718V12.87h3.718v1.686s1.118-2.069,3.775-2.069,4.556,1.621,4.556,4.975v7.926Z"></path>
  </symbol>
  <symbol id="stackoverflow" viewBox="0 0 105 124">
    <polygon points="88 80 99 80 99 124 0 124 0 80 11 80 11 113 88 113" />
    <path d="M22.9878906,76.73 L77.0128906,88.085 L79.2838906,77.285 L25.2588906,65.925 L22.9878906,76.73 Z M30.1368906,50.861 L80.1828906,74.169 L84.8448906,64.16 L34.7978906,40.852 L30.1368906,50.861 Z M43.9848906,26.308 L86.4128906,61.639 L93.4788906,53.154 L51.0508906,17.824 L43.9848906,26.308 Z M71.3718906,0.192 L62.5118906,6.782 L95.4598906,51.082 L104.319891,44.493 L71.3718906,0.192 Z M22,102 L77,102 L77,91 L22,91 L22,102 Z" />
  </symbol>
</svg>